<svg xmlns="http://www.w3.org/2000/svg" width="3000" height="2000"><path d="M1467,1175L972,1542L1631,1775Z" fill="#202020" stroke="#202020" stroke-width="1.51"/><path d="M1467,1175L748,970L972,1542Z" fill="#2c2c2c" stroke="#2c2c2c" stroke-width="1.51"/><path d="M972,1542L802,2196L1631,1775Z" fill="#262626" stroke="#262626" stroke-width="1.51"/><path d="M405,2117L802,2196L972,1542Z" fill="#333333" stroke="#333333" stroke-width="1.51"/><path d="M802,2196L1633,2354L1631,1775Z" fill="#1d1d1d" stroke="#1d1d1d" stroke-width="1.51"/><path d="M1631,1775L2189,1759L1467,1175Z" fill="#1a1a1a" stroke="#1a1a1a" stroke-width="1.51"/><path d="M2236,2106L2189,1759L1631,1775Z" fill="#171717" stroke="#171717" stroke-width="1.51"/><path d="M1633,2354L2236,2106L1631,1775Z" fill="#171717" stroke="#171717" stroke-width="1.51"/><path d="M2706,949L2188,821L2189,1759Z" fill="#191919" stroke="#191919" stroke-width="1.51"/><path d="M2189,1759L2188,821L1467,1175Z" fill="#1a1a1a" stroke="#1a1a1a" stroke-width="1.51"/><path d="M1467,1175L1342,361L748,970Z" fill="#303030" stroke="#303030" stroke-width="1.51"/><path d="M122,1770L405,2117L972,1542Z" fill="#3c3c3c" stroke="#3c3c3c" stroke-width="1.51"/><path d="M2188,821L1342,361L1467,1175Z" fill="#272727" stroke="#272727" stroke-width="1.51"/><path d="M185,1002L122,1770L972,1542Z" fill="#414141" stroke="#414141" stroke-width="1.51"/><path d="M748,970L185,1002L972,1542Z" fill="#3b3b3b" stroke="#3b3b3b" stroke-width="1.51"/><path d="M420,385L185,1002L748,970Z" fill="#4e4e4e" stroke="#4e4e4e" stroke-width="1.51"/><path d="M2188,821L2165,543L1342,361Z" fill="#2f2f2f" stroke="#2f2f2f" stroke-width="1.51"/><path d="M802,2196L1007,2797L1633,2354Z" fill="#222222" stroke="#222222" stroke-width="1.51"/><path d="M1633,2354L1918,2770L2236,2106Z" fill="#141414" stroke="#141414" stroke-width="1.51"/><path d="M487,2986L1007,2797L802,2196Z" fill="#2e2e2e" stroke="#2e2e2e" stroke-width="1.51"/><path d="M1342,361L921,283L748,970Z" fill="#444444" stroke="#444444" stroke-width="1.51"/><path d="M1007,2797L1362,2853L1633,2354Z" fill="#1a1a1a" stroke="#1a1a1a" stroke-width="1.51"/><path d="M1362,2853L1918,2770L1633,2354Z" fill="#151515" stroke="#151515" stroke-width="1.51"/><path d="M2236,2106L2802,1534L2189,1759Z" fill="#161616" stroke="#161616" stroke-width="1.51"/><path d="M2188,821L2549,493L2165,543Z" fill="#2b2b2b" stroke="#2b2b2b" stroke-width="1.51"/><path d="M2710,2294L2802,1534L2236,2106Z" fill="#141414" stroke="#141414" stroke-width="1.51"/><path d="M921,283L420,385L748,970Z" fill="#505050" stroke="#505050" stroke-width="1.51"/><path d="M2802,1534L2706,949L2189,1759Z" fill="#181818" stroke="#181818" stroke-width="1.51"/><path d="M2535,2934L2710,2294L2236,2106Z" fill="#121212" stroke="#121212" stroke-width="1.51"/><path d="M2706,949L2549,493L2188,821Z" fill="#252525" stroke="#252525" stroke-width="1.51"/><path d="M2165,543L1971,-113L1342,361Z" fill="#3e3e3e" stroke="#3e3e3e" stroke-width="1.51"/><path d="M1342,361L794,-52L921,283Z" fill="#555555" stroke="#555555" stroke-width="1.51"/><path d="M405,2117L487,2986L802,2196Z" fill="#363636" stroke="#363636" stroke-width="1.51"/><path d="M122,1770L-164,2242L405,2117Z" fill="#494949" stroke="#494949" stroke-width="1.51"/><path d="M-426,1542L-164,2242L122,1770Z" fill="#555555" stroke="#555555" stroke-width="1.51"/><path d="M921,283L794,-52L420,385Z" fill="#606060" stroke="#606060" stroke-width="1.51"/><path d="M1599,-300L794,-52L1342,361Z" fill="#565656" stroke="#565656" stroke-width="1.51"/><path d="M1007,2797L487,2986L1362,2853Z" fill="#262626" stroke="#262626" stroke-width="1.51"/><path d="M1362,2853L2535,2934L1918,2770Z" fill="#121212" stroke="#121212" stroke-width="1.51"/><path d="M-164,2242L487,2986L405,2117Z" fill="#424242" stroke="#424242" stroke-width="1.51"/><path d="M2549,493L1971,-113L2165,543Z" fill="#3a3a3a" stroke="#3a3a3a" stroke-width="1.51"/><path d="M-398,862L-426,1542L185,1002Z" fill="#5c5c5c" stroke="#5c5c5c" stroke-width="1.51"/><path d="M185,1002L-426,1542L122,1770Z" fill="#535353" stroke="#535353" stroke-width="1.51"/><path d="M1918,2770L2535,2934L2236,2106Z" fill="#121212" stroke="#121212" stroke-width="1.51"/><path d="M487,2986L2535,2934L1362,2853Z" fill="#151515" stroke="#151515" stroke-width="1.51"/><path d="M1971,-113L1599,-300L1342,361Z" fill="#4d4d4d" stroke="#4d4d4d" stroke-width="1.51"/><path d="M2549,493L2843,-289L1971,-113Z" fill="#464646" stroke="#464646" stroke-width="1.51"/><path d="M2706,949L3115,977L2549,493Z" fill="#212121" stroke="#212121" stroke-width="1.51"/><path d="M2802,1534L3115,977L2706,949Z" fill="#171717" stroke="#171717" stroke-width="1.51"/><path d="M3293,1558L3115,977L2802,1534Z" fill="#151515" stroke="#151515" stroke-width="1.51"/><path d="M3293,1558L2802,1534L3259,2263Z" fill="#131313" stroke="#131313" stroke-width="1.51"/><path d="M-230,234L-398,862L185,1002Z" fill="#6a6a6a" stroke="#6a6a6a" stroke-width="1.51"/><path d="M794,-52L422,-87L420,385Z" fill="#6e6e6e" stroke="#6e6e6e" stroke-width="1.51"/><path d="M969,-705L422,-87L794,-52Z" fill="#7a7a7a" stroke="#7a7a7a" stroke-width="1.51"/><path d="M-230,234L185,1002L420,385Z" fill="#676767" stroke="#676767" stroke-width="1.51"/><path d="M3259,2263L2802,1534L2710,2294Z" fill="#131313" stroke="#131313" stroke-width="1.51"/><path d="M422,-87L-230,234L420,385Z" fill="#777777" stroke="#777777" stroke-width="1.51"/><path d="M3131,2965L3259,2263L2710,2294Z" fill="#0e0e0e" stroke="#0e0e0e" stroke-width="1.51"/><path d="M-426,1542L-756,1596L-164,2242Z" fill="#616161" stroke="#616161" stroke-width="1.51"/><path d="M-164,2242L-400,2960L487,2986Z" fill="#4a4a4a" stroke="#4a4a4a" stroke-width="1.51"/><path d="M-1048,1178L-756,1596L-426,1542Z" fill="#6f6f6f" stroke="#6f6f6f" stroke-width="1.51"/><path d="M-1048,1178L-426,1542L-398,862Z" fill="#6c6c6c" stroke="#6c6c6c" stroke-width="1.51"/><path d="M-912,2742L-400,2960L-164,2242Z" fill="#5d5d5d" stroke="#5d5d5d" stroke-width="1.51"/><path d="M422,-87L-219,-296L-230,234Z" fill="#8c8c8c" stroke="#8c8c8c" stroke-width="1.51"/><path d="M1599,-300L969,-705L794,-52Z" fill="#6d6d6d" stroke="#6d6d6d" stroke-width="1.51"/><path d="M1386,-823L969,-705L1599,-300Z" fill="#727272" stroke="#727272" stroke-width="1.51"/><path d="M487,2986L3131,2965L2535,2934Z" fill="#101010" stroke="#101010" stroke-width="1.51"/><path d="M2535,2934L3131,2965L2710,2294Z" fill="#0e0e0e" stroke="#0e0e0e" stroke-width="1.51"/><path d="M2049,-985L1386,-823L1599,-300Z" fill="#6f6f6f" stroke="#6f6f6f" stroke-width="1.51"/><path d="M2049,-985L1599,-300L1971,-113Z" fill="#626262" stroke="#626262" stroke-width="1.51"/><path d="M3438,438L2549,493L3115,977Z" fill="#272727" stroke="#272727" stroke-width="1.51"/><path d="M3438,438L2843,-289L2549,493Z" fill="#3b3b3b" stroke="#3b3b3b" stroke-width="1.51"/><path d="M3873,944L3438,438L3115,977Z" fill="#1f1f1f" stroke="#1f1f1f" stroke-width="1.51"/><path d="M3873,944L3115,977L3293,1558Z" fill="#151515" stroke="#151515" stroke-width="1.51"/><path d="M387,-855L-219,-296L422,-87Z" fill="#979797" stroke="#979797" stroke-width="1.51"/><path d="M-966,470L-1048,1178L-398,862Z" fill="#7d7d7d" stroke="#7d7d7d" stroke-width="1.51"/><path d="M-966,470L-398,862L-230,234Z" fill="#838383" stroke="#838383" stroke-width="1.51"/><path d="M-756,1596L-970,2374L-164,2242Z" fill="#666666" stroke="#666666" stroke-width="1.51"/><path d="M-1048,1178L-970,2374L-756,1596Z" fill="#757575" stroke="#757575" stroke-width="1.51"/><path d="M-1025,-368L-966,470L-230,234Z" fill="#a3a3a3" stroke="#a3a3a3" stroke-width="1.51"/><path d="M-970,2374L-912,2742L-164,2242Z" fill="#666666" stroke="#666666" stroke-width="1.51"/><path d="M1386,-823L387,-855L969,-705Z" fill="#8d8d8d" stroke="#8d8d8d" stroke-width="1.51"/><path d="M969,-705L387,-855L422,-87Z" fill="#8e8e8e" stroke="#8e8e8e" stroke-width="1.51"/><path d="M3438,438L3182,-284L2843,-289Z" fill="#464646" stroke="#464646" stroke-width="1.51"/><path d="M2843,-289L2520,-793L1971,-113Z" fill="#5b5b5b" stroke="#5b5b5b" stroke-width="1.51"/><path d="M3864,-355L3199,-751L3182,-284Z" fill="#5a5a5a" stroke="#5a5a5a" stroke-width="1.51"/><path d="M3946,1759L3873,944L3293,1558Z" fill="#121212" stroke="#121212" stroke-width="1.51"/><path d="M3946,1759L3293,1558L3259,2263Z" fill="#111111" stroke="#111111" stroke-width="1.51"/><path d="M1386,-823L2049,-985L387,-855Z" fill="#838383" stroke="#838383" stroke-width="1.51"/><path d="M3199,-751L2520,-793L2843,-289Z" fill="#646464" stroke="#646464" stroke-width="1.51"/><path d="M3953,2276L3946,1759L3259,2263Z" fill="#0d0d0d" stroke="#0d0d0d" stroke-width="1.51"/><path d="M2520,-793L2049,-985L1971,-113Z" fill="#696969" stroke="#696969" stroke-width="1.51"/><path d="M3849,2724L3953,2276L3259,2263Z" fill="#0b0b0b" stroke="#0b0b0b" stroke-width="1.51"/><path d="M3131,2965L3849,2724L3259,2263Z" fill="#0b0b0b" stroke="#0b0b0b" stroke-width="1.51"/><path d="M387,-855L-308,-733L-219,-296Z" fill="#aeaeae" stroke="#aeaeae" stroke-width="1.51"/><path d="M-219,-296L-1025,-368L-230,234Z" fill="#a6a6a6" stroke="#a6a6a6" stroke-width="1.51"/><path d="M2520,-793L3199,-751L2049,-985Z" fill="#727272" stroke="#727272" stroke-width="1.51"/><path d="M3182,-284L3199,-751L2843,-289Z" fill="#5a5a5a" stroke="#5a5a5a" stroke-width="1.51"/><path d="M3864,-355L3182,-284L3438,438Z" fill="#464646" stroke="#464646" stroke-width="1.51"/><path d="M3873,944L4018,239L3438,438Z" fill="#282828" stroke="#282828" stroke-width="1.51"/><path d="M3946,1759L4018,239L3873,944Z" fill="#151515" stroke="#151515" stroke-width="1.51"/><path d="M3953,2276L4018,239L3946,1759Z" fill="#101010" stroke="#101010" stroke-width="1.51"/><path d="M-966,470L-1025,-368L-1048,1178Z" fill="#9c9c9c" stroke="#9c9c9c" stroke-width="1.51"/><path d="M-802,-816L-1025,-368L-219,-296Z" fill="#c3c3c3" stroke="#c3c3c3" stroke-width="1.51"/><path d="M4018,239L3864,-355L3438,438Z" fill="#3c3c3c" stroke="#3c3c3c" stroke-width="1.51"/><path d="M-308,-733L-802,-816L-219,-296Z" fill="#bfbfbf" stroke="#bfbfbf" stroke-width="1.51"/><path d="M387,-855L-802,-816L-308,-733Z" fill="#c1c1c1" stroke="#c1c1c1" stroke-width="1.51"/><path d="M2049,-985L-802,-816L387,-855Z" fill="#a3a3a3" stroke="#a3a3a3" stroke-width="1.51"/><path d="M4018,239L3934,-660L3864,-355Z" fill="#4d4d4d" stroke="#4d4d4d" stroke-width="1.51"/><path d="M3864,-355L3934,-660L3199,-751Z" fill="#5f5f5f" stroke="#5f5f5f" stroke-width="1.51"/><path d="M3199,-751L3934,-660L2049,-985Z" fill="#6d6d6d" stroke="#6d6d6d" stroke-width="1.51"/></svg>